<?xml version="1.0" encoding="utf-8"?>
<!-- Svg Vector Icons : http://www.onlinewebfonts.com/icon -->
<!DOCTYPE svg PUBLIC "-//W3C//DTD SVG 1.1//EN" "http://www.w3.org/Graphics/SVG/1.1/DTD/svg11.dtd">
<svg version="1.1" xmlns="http://www.w3.org/2000/svg" xmlns:xlink="http://www.w3.org/1999/xlink" x="0px" y="0px" viewBox="0 0 1000 1000" enable-background="new 0 0 1000 1000" xml:space="preserve">
<metadata> Svg Vector Icons : http://www.onlinewebfonts.com/icon </metadata>
<g><g transform="translate(0.000000,511.000000) scale(0.100000,-0.100000)"><path d="M4390.6,4940.2c-492.3-166.2-831.1-383.6-1291.4-831.1C1865.3,2920,1021.4,912.6,1015.1-826.3c0-601,19.2-773.6,172.6-1208.3c230.2-664.8,428.3-997.3,927-1527.9c466.7-498.7,1048.5-863.1,1700.6-1080.4c364.4-121.5,588.2-147,1182.7-147c1189.1,0,1956.3,319.6,2819.4,1176.3c524.2,517.9,843.8,1061.3,1054.8,1770.9c134.3,453.9,153.5,1476.8,32,2039.4c-428.3,2064.9-1668.6,3995.7-2934.4,4590.2C5483.8,5010.5,4812.5,5074.5,4390.6,4940.2z M5880.2,4288.1c358-198.2,984.6-792.7,1316.9-1265.8c735.2-1035.7,1317-2742.6,1317-3842.3c-6.4-1451.2-914.2-2742.6-2333.5-3305.2c-332.4-127.9-492.3-147-1182.7-147c-664.9,0-863.1,25.6-1182.7,140.7c-1112.4,415.6-1969,1387.3-2244,2544.4c-453.9,1924.4,1074,5248.7,2736.2,5958.3C4780.6,4575.8,5413.5,4543.9,5880.2,4288.1z"/><path d="M3796,3329.2c-402.8-294.1-524.2-447.5-524.2-664.9c0-236.6,242.9-236.6,505,6.4c127.9,121.5,338.9,300.4,473.1,402.8c262.1,191.8,306.9,377.2,115.1,479.5C4198.8,3642.4,4230.8,3655.2,3796,3329.2z"/><path d="M2869,2191.2c-140.7-108.7-453.9-760.8-658.5-1361.7C2095.5,465.1,2044.3,171,2037.9-219l-12.8-543.4h191.8h185.4L2511-123.1c115.1,690.4,262.1,1157.2,530.6,1675c89.5,185.4,166.2,389.9,166.2,460.3C3207.9,2184.8,3003.3,2293.5,2869,2191.2z"/></g></g>
</svg>